<svg viewBox="0 0 1024 1024" width="24" height="24" xmlns="http://www.w3.org/2000/svg" fill="currentColor">
  <path d="M512 0C229.2 0 0 229.2 0 512c0 226.2 146.8 417.8 350.7 485.3 25.6 4.7 35-11.1 35-24.7 0-12.2-.5-52.3-.7-94.9-142.7 31-172.8-61.6-172.8-61.6-23.3-59.3-56.8-75.1-56.8-75.1-46.5-31.8 3.5-31.2 3.5-31.2 51.4 3.6 78.4 52.8 78.4 52.8 45.7 78.4 119.9 55.7 149.2 42.6 4.6-33.1 17.9-55.7 32.6-68.5-113.9-13-233.7-56.9-233.7-253.2 0-55.9 20-101.6 52.8-137.4-5.3-13-22.9-65.4 5-136.5 0 0 43.2-13.8 141.5 52.5 41-11.4 85-17.1 128.7-17.3 43.7.2 87.7 5.9 128.7 17.3 98.3-66.3 141.4-52.5 141.4-52.5 27.9 71.1 10.4 123.5 5.1 136.5 32.9 35.8 52.7 81.5 52.7 137.4 0 196.8-120 240-234.3 252.7 18.4 15.9 34.8 47.2 34.8 95.2 0 68.7-.6 124.1-.6 141 0 13.8 9.3 29.7 35.2 24.6C877.3 929.7 1024 738.1 1024 512 1024 229.2 794.8 0 512 0z"/>
</svg>
