<svg
  xmlns="http://www.w3.org/2000/svg"
  width="24"
  height="24"
  viewBox="0 0 24 24"
  fill="currentColor"
>
  <path
    d="M12 0.297C5.37 0.297 0 5.666 0 12.297c0 5.288 3.438 9.776 8.207 11.363.6.11.793-.26.793-.577 0-.285-.01-1.04-.016-2.04-3.338.724-4.042-1.61-4.042-1.61-.546-1.387-1.333-1.757-1.333-1.757-1.09-.745.083-.729.083-.729 1.205.085 1.838 1.237 1.838 1.237 1.07 1.832 2.807 1.303 3.492.996.108-.775.418-1.303.76-1.602-2.665-.305-5.467-1.333-5.467-5.93 0-1.31.468-2.38 1.235-3.22-.124-.303-.535-1.523.117-3.176 0 0 1.008-.322 3.3 1.23a11.5 11.5 0 0 1 3.003-.403c1.02.004 2.047.137 3.003.403 2.29-1.552 3.296-1.23 3.296-1.23.653 1.653.242 2.873.119 3.176.77.84 1.232 1.91 1.232 3.22 0 4.61-2.807 5.623-5.479 5.92.43.372.813 1.102.813 2.222 0 1.606-.015 2.896-.015 3.29 0 .32.19.694.8.576C20.565 22.07 24 17.582 24 12.297 24 5.666 18.627.297 12 .297z"
  />
</svg>
