<svg class="inline-block shrink-0 align-middle mr-1 h-[18px] w-[18px] text-[18px]" viewBox="0 0 33 33" width="1em" height="1em" xmlns="http://www.w3.org/2000/svg"><path d="M16.5 32.991C7.5625 32.991 0.203125 25.6316 0.203125 16.6941C0.203125 7.77222 7.5625 0.397217 16.4844 0.397217C25.4219 0.397217 32.7969 7.77222 32.7969 16.6941C32.7969 25.6316 25.4375 32.991 16.5 32.991ZM7.0625 7.08472C7.8125 7.60034 8.73438 8.03784 9.8125 8.38159C10.5312 6.45972 11.4688 4.88159 12.5938 3.77222C10.4844 4.42847 8.59375 5.58472 7.0625 7.08472ZM20.4219 3.78784C21.5312 4.89722 22.4844 6.47534 23.1875 8.38159C24.2656 8.03784 25.1875 7.61597 25.9375 7.10034C24.4062 5.58472 22.5156 4.44409 20.4219 3.78784ZM17.6406 4.42847V9.27222C18.7969 9.22534 19.8906 9.11597 20.9062 8.94409C20.0625 6.70972 18.9062 5.05347 17.6406 4.42847ZM12.0938 8.94409C13.1094 9.11597 14.2031 9.22534 15.3594 9.27222V4.42847C14.0938 5.05347 12.9375 6.70972 12.0938 8.94409ZM3.04688 15.5535H8.46875C8.54688 13.7566 8.78125 12.0691 9.15625 10.5378C7.73438 10.0847 6.51562 9.49097 5.59375 8.78784C4.17188 10.7253 3.26562 13.0535 3.04688 15.5535ZM24.5312 15.5535H29.9531C29.7344 13.0535 28.8281 10.741 27.4062 8.80347C26.4844 9.49097 25.2656 10.0847 23.8438 10.5378C24.2188 12.0691 24.4531 13.7566 24.5312 15.5535ZM10.7969 15.5535H15.3594V11.5691C13.9844 11.5066 12.6562 11.3503 11.4375 11.116C11.0938 12.491 10.875 13.991 10.7969 15.5535ZM17.6406 15.5535H22.2031C22.125 13.991 21.9062 12.491 21.5625 11.116C20.3438 11.3503 19.0156 11.5066 17.6406 11.5691V15.5535ZM3.04688 17.8347C3.26562 20.3503 4.1875 22.6941 5.625 24.6472C6.54688 23.9597 7.75 23.3816 9.17188 22.9285C8.78125 21.366 8.53125 19.6628 8.46875 17.8347H3.04688ZM10.7969 17.8347C10.875 19.4128 11.0938 20.9441 11.4375 22.3503C12.6719 22.116 13.9844 21.9597 15.3594 21.8972V17.8347H10.7969ZM17.6406 21.8972C19.0156 21.9597 20.3281 22.116 21.5625 22.3503C21.9062 20.9441 22.125 19.4128 22.2031 17.8347H17.6406V21.8972ZM23.8281 22.9285C25.25 23.3816 26.4531 23.9597 27.375 24.6472C28.8125 22.6941 29.7344 20.3503 29.9531 17.8347H24.5312C24.4688 19.6628 24.2188 21.366 23.8281 22.9285ZM12.125 24.5222C12.9531 26.7097 14.1094 28.3503 15.3594 28.991V24.1785C14.2031 24.2253 13.125 24.3503 12.125 24.5222ZM17.6406 24.1785V28.991C18.8906 28.3503 20.0469 26.7097 20.875 24.5222C19.875 24.3503 18.7969 24.2253 17.6406 24.1785ZM23.1719 25.0691C22.4688 26.9597 21.5312 28.5066 20.4375 29.6003C22.5 28.9597 24.375 27.8347 25.9062 26.3347C25.1562 25.8347 24.2344 25.4128 23.1719 25.0691ZM7.10938 26.3347C8.625 27.8347 10.5 28.9597 12.5625 29.6003C11.4688 28.5066 10.5312 26.9597 9.82812 25.0691C8.76562 25.4128 7.84375 25.8347 7.10938 26.3347Z" fill="currentColor"></path></svg>