<svg xmlns="http://www.w3.org/2000/svg" viewBox="0 0 48 48">
  <path fill="#FFC107" d="M43.611 20.083H42V20H24v8h11.284C33.417 32.454 29.136 35.5 24 35.5c-6.351 0-11.5-5.149-11.5-11.5S17.649 12.5 24 12.5c2.652 0 5.083.909 6.996 2.418l6.088-6.088C33.91 6.303 29.18 4.5 24 4.5 12.954 4.5 4.5 12.954 4.5 24s8.454 19.5 19.5 19.5c10.777 0 19.5-8.723 19.5-19.5 0-1.316-.138-2.604-.389-3.833z"/>
  <path fill="#FF3D00" d="M6.306 14.691l6.571 4.819C14.129 16.037 18.724 12.5 24 12.5c2.652 0 5.083.909 6.996 2.418l6.088-6.088C33.91 6.303 29.18 4.5 24 4.5c-7.555 0-14.078 4.134-17.694 10.191z"/>
  <path fill="#4CAF50" d="M24 43.5c5.01 0 9.579-1.914 13.036-5.036l-6.017-4.932C29.109 35.058 26.653 36 24 36c-5.113 0-9.381-3.426-10.918-8.073l-6.556 5.056C10.008 39.045 16.491 43.5 24 43.5z"/>
  <path fill="#1976D2" d="M43.611 20.083H42V20H24v8h11.284c-1.17 3.215-3.786 5.736-7.248 6.832l6.017 4.932C37.943 36.451 43.5 30.5 43.5 24c0-1.316-.138-2.604-.389-3.833z"/>
</svg>
